<mxfile host="app.diagrams.net" agent="Mozilla/5.0 (Macintosh; Intel Mac OS X 10_15_7) AppleWebKit/537.36 (KHTML, like Gecko) Chrome/133.0.0.0 Safari/537.36" version="26.0.15">
  <diagram name="Page-1" id="E4EXWyKV6AaeFtAR0diQ">
    <mxGraphModel dx="1224" dy="774" grid="1" gridSize="10" guides="1" tooltips="1" connect="1" arrows="1" fold="1" page="1" pageScale="1" pageWidth="1100" pageHeight="850" math="0" shadow="0">
      <root>
        <mxCell id="0" />
        <mxCell id="1" parent="0" />
        <mxCell id="bNuw-tWGTO1KnylRXAeA-55" value="" style="rounded=0;whiteSpace=wrap;html=1;dashed=1;fontSize=16;fontFamily=Times New Roman;" vertex="1" parent="1">
          <mxGeometry x="530" y="425" width="390" height="140" as="geometry" />
        </mxCell>
        <mxCell id="bNuw-tWGTO1KnylRXAeA-54" value="" style="rounded=0;whiteSpace=wrap;html=1;dashed=1;fontSize=16;fontFamily=Times New Roman;" vertex="1" parent="1">
          <mxGeometry x="530" y="258.75" width="390" height="140" as="geometry" />
        </mxCell>
        <mxCell id="bNuw-tWGTO1KnylRXAeA-47" value="" style="rounded=0;whiteSpace=wrap;html=1;dashed=1;fontSize=16;fontFamily=Times New Roman;" vertex="1" parent="1">
          <mxGeometry x="530" y="90" width="390" height="140" as="geometry" />
        </mxCell>
        <mxCell id="bNuw-tWGTO1KnylRXAeA-2" value="" style="verticalLabelPosition=bottom;html=1;verticalAlign=top;align=center;strokeColor=none;fillColor=#00BEF2;shape=mxgraph.azure.computer;pointerEvents=1;fontFamily=Times New Roman;fontSize=16;strokeWidth=2;" vertex="1" parent="1">
          <mxGeometry x="40" y="401" width="80" height="80" as="geometry" />
        </mxCell>
        <mxCell id="bNuw-tWGTO1KnylRXAeA-3" value="" style="sketch=0;outlineConnect=0;fontColor=#232F3E;gradientColor=none;fillColor=#E7157B;strokeColor=none;dashed=0;verticalLabelPosition=bottom;verticalAlign=top;align=center;html=1;fontSize=16;fontStyle=0;aspect=fixed;pointerEvents=1;shape=mxgraph.aws4.endpoint;fontFamily=Times New Roman;strokeWidth=2;" vertex="1" parent="1">
          <mxGeometry x="280" y="160" width="78" height="78" as="geometry" />
        </mxCell>
        <mxCell id="bNuw-tWGTO1KnylRXAeA-4" value="" style="sketch=0;points=[[0,0,0],[0.25,0,0],[0.5,0,0],[0.75,0,0],[1,0,0],[0,1,0],[0.25,1,0],[0.5,1,0],[0.75,1,0],[1,1,0],[0,0.25,0],[0,0.5,0],[0,0.75,0],[1,0.25,0],[1,0.5,0],[1,0.75,0]];outlineConnect=0;fontColor=#232F3E;fillColor=#8C4FFF;strokeColor=#ffffff;dashed=0;verticalLabelPosition=bottom;verticalAlign=top;align=center;html=1;fontSize=16;fontStyle=0;aspect=fixed;shape=mxgraph.aws4.resourceIcon;resIcon=mxgraph.aws4.app_mesh;fontFamily=Times New Roman;strokeWidth=2;" vertex="1" parent="1">
          <mxGeometry x="280" y="401" width="78" height="78" as="geometry" />
        </mxCell>
        <mxCell id="bNuw-tWGTO1KnylRXAeA-5" value="" style="points=[];aspect=fixed;html=1;align=center;shadow=0;dashed=0;fillColor=#FF6A00;strokeColor=none;shape=mxgraph.alibaba_cloud.ahas_application_high_availability_service;fontFamily=Times New Roman;fontSize=16;strokeWidth=2;" vertex="1" parent="1">
          <mxGeometry x="599.27" y="280" width="69.27" height="80" as="geometry" />
        </mxCell>
        <mxCell id="bNuw-tWGTO1KnylRXAeA-6" value="" style="points=[];aspect=fixed;html=1;align=center;shadow=0;dashed=0;fillColor=#FF6A00;strokeColor=none;shape=mxgraph.alibaba_cloud.ahas_application_high_availability_service;fontFamily=Times New Roman;fontSize=16;strokeWidth=2;" vertex="1" parent="1">
          <mxGeometry x="599.27" y="120" width="69.27" height="80" as="geometry" />
        </mxCell>
        <mxCell id="bNuw-tWGTO1KnylRXAeA-8" value="" style="points=[];aspect=fixed;html=1;align=center;shadow=0;dashed=0;fillColor=#FF6A00;strokeColor=none;shape=mxgraph.alibaba_cloud.ahas_application_high_availability_service;fontFamily=Times New Roman;fontSize=16;strokeWidth=2;" vertex="1" parent="1">
          <mxGeometry x="599.27" y="440" width="69.27" height="80" as="geometry" />
        </mxCell>
        <mxCell id="bNuw-tWGTO1KnylRXAeA-10" value="Account Service" style="text;html=1;align=center;verticalAlign=middle;resizable=0;points=[];autosize=1;strokeColor=none;fillColor=none;fontFamily=Times New Roman;fontSize=16;strokeWidth=2;" vertex="1" parent="1">
          <mxGeometry x="580" y="198" width="130" height="30" as="geometry" />
        </mxCell>
        <mxCell id="bNuw-tWGTO1KnylRXAeA-11" value="Photo Sharing Service" style="text;html=1;align=center;verticalAlign=middle;resizable=0;points=[];autosize=1;strokeColor=none;fillColor=none;fontFamily=Times New Roman;fontSize=16;strokeWidth=2;" vertex="1" parent="1">
          <mxGeometry x="545" y="358" width="170" height="30" as="geometry" />
        </mxCell>
        <mxCell id="bNuw-tWGTO1KnylRXAeA-12" value="Video Sharing Service" style="text;html=1;align=center;verticalAlign=middle;resizable=0;points=[];autosize=1;strokeColor=none;fillColor=none;fontFamily=Times New Roman;fontSize=16;strokeWidth=2;" vertex="1" parent="1">
          <mxGeometry x="545" y="528" width="170" height="30" as="geometry" />
        </mxCell>
        <mxCell id="bNuw-tWGTO1KnylRXAeA-13" value="Facebook Application&lt;div&gt;(Service-Based Software System)&lt;/div&gt;" style="text;html=1;align=center;verticalAlign=middle;resizable=0;points=[];autosize=1;strokeColor=none;fillColor=none;fontFamily=Times New Roman;fontSize=16;strokeWidth=2;" vertex="1" parent="1">
          <mxGeometry x="180" y="478" width="240" height="50" as="geometry" />
        </mxCell>
        <mxCell id="bNuw-tWGTO1KnylRXAeA-14" value="Browser" style="text;html=1;align=center;verticalAlign=middle;resizable=0;points=[];autosize=1;strokeColor=none;fillColor=none;fontFamily=Times New Roman;fontSize=16;strokeWidth=2;" vertex="1" parent="1">
          <mxGeometry x="40" y="488" width="80" height="30" as="geometry" />
        </mxCell>
        <mxCell id="bNuw-tWGTO1KnylRXAeA-15" value="Mobile App" style="text;html=1;align=center;verticalAlign=middle;resizable=0;points=[];autosize=1;strokeColor=none;fillColor=none;fontFamily=Times New Roman;fontSize=16;strokeWidth=2;" vertex="1" parent="1">
          <mxGeometry x="20" y="238" width="100" height="30" as="geometry" />
        </mxCell>
        <mxCell id="bNuw-tWGTO1KnylRXAeA-16" value="API Gateway" style="text;html=1;align=center;verticalAlign=middle;resizable=0;points=[];autosize=1;strokeColor=none;fillColor=none;fontFamily=Times New Roman;fontSize=16;strokeWidth=2;" vertex="1" parent="1">
          <mxGeometry x="255" y="238" width="110" height="30" as="geometry" />
        </mxCell>
        <mxCell id="bNuw-tWGTO1KnylRXAeA-18" value="" style="image;aspect=fixed;perimeter=ellipsePerimeter;html=1;align=center;shadow=0;dashed=0;spacingTop=3;image=img/lib/active_directory/database.svg;fontFamily=Times New Roman;fontSize=16;strokeWidth=2;" vertex="1" parent="1">
          <mxGeometry x="800" y="115" width="94.59" height="70" as="geometry" />
        </mxCell>
        <mxCell id="bNuw-tWGTO1KnylRXAeA-19" value="Account Database" style="text;html=1;align=center;verticalAlign=middle;resizable=0;points=[];autosize=1;strokeColor=none;fillColor=none;fontFamily=Times New Roman;fontSize=16;strokeWidth=2;" vertex="1" parent="1">
          <mxGeometry x="782.3" y="185" width="140" height="30" as="geometry" />
        </mxCell>
        <mxCell id="bNuw-tWGTO1KnylRXAeA-20" value="" style="image;aspect=fixed;perimeter=ellipsePerimeter;html=1;align=center;shadow=0;dashed=0;spacingTop=3;image=img/lib/active_directory/database.svg;fontFamily=Times New Roman;fontSize=16;strokeWidth=2;" vertex="1" parent="1">
          <mxGeometry x="800" y="440" width="94.59" height="70" as="geometry" />
        </mxCell>
        <mxCell id="bNuw-tWGTO1KnylRXAeA-21" value="Video Database" style="text;html=1;align=center;verticalAlign=middle;resizable=0;points=[];autosize=1;strokeColor=none;fillColor=none;fontFamily=Times New Roman;fontSize=16;strokeWidth=2;" vertex="1" parent="1">
          <mxGeometry x="787.3" y="510" width="120" height="30" as="geometry" />
        </mxCell>
        <mxCell id="bNuw-tWGTO1KnylRXAeA-22" value="" style="image;aspect=fixed;perimeter=ellipsePerimeter;html=1;align=center;shadow=0;dashed=0;spacingTop=3;image=img/lib/active_directory/database.svg;fontFamily=Times New Roman;fontSize=16;strokeWidth=2;" vertex="1" parent="1">
          <mxGeometry x="800" y="285" width="94.59" height="70" as="geometry" />
        </mxCell>
        <mxCell id="bNuw-tWGTO1KnylRXAeA-23" value="Photo Database" style="text;html=1;align=center;verticalAlign=middle;resizable=0;points=[];autosize=1;strokeColor=none;fillColor=none;fontFamily=Times New Roman;fontSize=16;strokeWidth=2;" vertex="1" parent="1">
          <mxGeometry x="787.3" y="350" width="120" height="30" as="geometry" />
        </mxCell>
        <mxCell id="bNuw-tWGTO1KnylRXAeA-25" value="" style="endArrow=none;html=1;rounded=0;entryX=0.106;entryY=0.571;entryDx=0;entryDy=0;entryPerimeter=0;fontFamily=Times New Roman;fontSize=16;strokeWidth=2;startFill=0;" edge="1" parent="1">
          <mxGeometry width="50" height="50" relative="1" as="geometry">
            <mxPoint x="669.9699999999999" y="160.03" as="sourcePoint" />
            <mxPoint x="799.99654" y="160.00000000000003" as="targetPoint" />
          </mxGeometry>
        </mxCell>
        <mxCell id="bNuw-tWGTO1KnylRXAeA-26" value="" style="endArrow=none;html=1;rounded=0;entryX=0.106;entryY=0.571;entryDx=0;entryDy=0;entryPerimeter=0;fontFamily=Times New Roman;fontSize=16;strokeWidth=2;startFill=0;" edge="1" parent="1">
          <mxGeometry width="50" height="50" relative="1" as="geometry">
            <mxPoint x="670" y="480" as="sourcePoint" />
            <mxPoint x="804.99654" y="479" as="targetPoint" />
          </mxGeometry>
        </mxCell>
        <mxCell id="bNuw-tWGTO1KnylRXAeA-27" value="" style="endArrow=none;html=1;rounded=0;entryX=0.106;entryY=0.571;entryDx=0;entryDy=0;entryPerimeter=0;fontFamily=Times New Roman;fontSize=16;strokeWidth=2;startFill=0;" edge="1" parent="1">
          <mxGeometry width="50" height="50" relative="1" as="geometry">
            <mxPoint x="670" y="320" as="sourcePoint" />
            <mxPoint x="804.99654" y="319.5" as="targetPoint" />
          </mxGeometry>
        </mxCell>
        <mxCell id="bNuw-tWGTO1KnylRXAeA-28" value="" style="endArrow=none;html=1;rounded=0;entryX=0;entryY=0.5;entryDx=0;entryDy=0;fontFamily=Times New Roman;fontSize=16;strokeWidth=2;startFill=0;" edge="1" parent="1" target="bNuw-tWGTO1KnylRXAeA-39">
          <mxGeometry width="50" height="50" relative="1" as="geometry">
            <mxPoint x="357.9999999999999" y="199.52999999999997" as="sourcePoint" />
            <mxPoint x="560" y="170" as="targetPoint" />
          </mxGeometry>
        </mxCell>
        <mxCell id="bNuw-tWGTO1KnylRXAeA-29" value="" style="endArrow=none;html=1;rounded=0;exitX=1.026;exitY=0.513;exitDx=0;exitDy=0;exitPerimeter=0;entryX=0;entryY=0.5;entryDx=0;entryDy=0;fontFamily=Times New Roman;fontSize=16;strokeWidth=2;startFill=0;" edge="1" parent="1" source="bNuw-tWGTO1KnylRXAeA-3" target="bNuw-tWGTO1KnylRXAeA-40">
          <mxGeometry width="50" height="50" relative="1" as="geometry">
            <mxPoint x="367.9999999999999" y="209.52999999999997" as="sourcePoint" />
            <mxPoint x="560" y="300" as="targetPoint" />
          </mxGeometry>
        </mxCell>
        <mxCell id="bNuw-tWGTO1KnylRXAeA-30" value="" style="endArrow=none;html=1;rounded=0;fontFamily=Times New Roman;fontSize=16;strokeWidth=2;startFill=0;" edge="1" parent="1">
          <mxGeometry width="50" height="50" relative="1" as="geometry">
            <mxPoint x="360" y="200" as="sourcePoint" />
            <mxPoint x="560" y="450" as="targetPoint" />
          </mxGeometry>
        </mxCell>
        <mxCell id="bNuw-tWGTO1KnylRXAeA-31" value="" style="endArrow=none;html=1;rounded=0;entryX=0.5;entryY=1;entryDx=0;entryDy=0;fontFamily=Times New Roman;fontSize=16;strokeWidth=2;startFill=0;" edge="1" parent="1" target="bNuw-tWGTO1KnylRXAeA-39">
          <mxGeometry width="50" height="50" relative="1" as="geometry">
            <mxPoint x="358" y="440" as="sourcePoint" />
            <mxPoint x="560" y="190" as="targetPoint" />
          </mxGeometry>
        </mxCell>
        <mxCell id="bNuw-tWGTO1KnylRXAeA-32" value="" style="endArrow=none;html=1;rounded=0;entryX=0;entryY=0.5;entryDx=0;entryDy=0;fontFamily=Times New Roman;fontSize=16;strokeWidth=2;startFill=0;" edge="1" parent="1" target="bNuw-tWGTO1KnylRXAeA-40">
          <mxGeometry width="50" height="50" relative="1" as="geometry">
            <mxPoint x="360" y="440" as="sourcePoint" />
            <mxPoint x="560" y="340" as="targetPoint" />
          </mxGeometry>
        </mxCell>
        <mxCell id="bNuw-tWGTO1KnylRXAeA-33" value="" style="endArrow=none;html=1;rounded=0;exitX=1;exitY=0.5;exitDx=0;exitDy=0;exitPerimeter=0;entryX=0;entryY=0.5;entryDx=0;entryDy=0;fontFamily=Times New Roman;fontSize=16;strokeWidth=2;startFill=0;" edge="1" parent="1" source="bNuw-tWGTO1KnylRXAeA-4" target="bNuw-tWGTO1KnylRXAeA-41">
          <mxGeometry width="50" height="50" relative="1" as="geometry">
            <mxPoint x="360" y="599" as="sourcePoint" />
            <mxPoint x="550" y="470" as="targetPoint" />
          </mxGeometry>
        </mxCell>
        <mxCell id="bNuw-tWGTO1KnylRXAeA-34" value="" style="endArrow=none;html=1;rounded=0;entryX=0;entryY=0.5;entryDx=0;entryDy=0;entryPerimeter=0;fontFamily=Times New Roman;fontSize=16;strokeWidth=2;startFill=0;" edge="1" parent="1" target="bNuw-tWGTO1KnylRXAeA-4">
          <mxGeometry width="50" height="50" relative="1" as="geometry">
            <mxPoint x="120" y="439" as="sourcePoint" />
            <mxPoint x="239.99653999999998" y="439" as="targetPoint" />
          </mxGeometry>
        </mxCell>
        <mxCell id="bNuw-tWGTO1KnylRXAeA-38" value="" style="endArrow=none;html=1;rounded=0;exitX=1;exitY=0.5;exitDx=0;exitDy=0;exitPerimeter=0;fontFamily=Times New Roman;fontSize=16;strokeWidth=2;entryX=0;entryY=0.5;entryDx=0;entryDy=0;startFill=0;" edge="1" parent="1" target="bNuw-tWGTO1KnylRXAeA-37">
          <mxGeometry width="50" height="50" relative="1" as="geometry">
            <mxPoint x="120" y="200" as="sourcePoint" />
            <mxPoint x="200" y="200" as="targetPoint" />
          </mxGeometry>
        </mxCell>
        <mxCell id="bNuw-tWGTO1KnylRXAeA-37" value="REST/&lt;div&gt;GraphQL&lt;/div&gt;&lt;div&gt;APIs&lt;/div&gt;" style="rounded=1;whiteSpace=wrap;html=1;fillColor=#fff2cc;strokeColor=#d6b656;fontFamily=Times New Roman;fontSize=16;strokeWidth=2;" vertex="1" parent="1">
          <mxGeometry x="210" y="174.5" width="70" height="53.5" as="geometry" />
        </mxCell>
        <mxCell id="bNuw-tWGTO1KnylRXAeA-39" value="REST/&lt;div&gt;GraphQL&lt;/div&gt;&lt;div&gt;APIs&lt;/div&gt;" style="rounded=1;whiteSpace=wrap;html=1;fillColor=#fff2cc;strokeColor=#d6b656;fontFamily=Times New Roman;fontSize=16;strokeWidth=2;" vertex="1" parent="1">
          <mxGeometry x="530" y="131.5" width="70" height="58.5" as="geometry" />
        </mxCell>
        <mxCell id="bNuw-tWGTO1KnylRXAeA-40" value="REST/&lt;div&gt;GraphQL&lt;/div&gt;&lt;div&gt;APIs&lt;/div&gt;" style="rounded=1;whiteSpace=wrap;html=1;fillColor=#fff2cc;strokeColor=#d6b656;fontFamily=Times New Roman;fontSize=16;strokeWidth=2;" vertex="1" parent="1">
          <mxGeometry x="530" y="297.5" width="70" height="62.5" as="geometry" />
        </mxCell>
        <mxCell id="bNuw-tWGTO1KnylRXAeA-41" value="REST/&lt;div&gt;GraphQL&lt;/div&gt;&lt;div&gt;APIs&lt;/div&gt;" style="rounded=1;whiteSpace=wrap;html=1;fillColor=#fff2cc;strokeColor=#d6b656;fontFamily=Times New Roman;fontSize=16;strokeWidth=2;" vertex="1" parent="1">
          <mxGeometry x="530" y="452.5" width="70" height="57.5" as="geometry" />
        </mxCell>
        <mxCell id="bNuw-tWGTO1KnylRXAeA-46" value="" style="sketch=0;outlineConnect=0;fontColor=#232F3E;gradientColor=none;strokeColor=#232F3E;fillColor=#ffffff;dashed=0;verticalLabelPosition=bottom;verticalAlign=top;align=center;html=1;fontSize=16;fontStyle=0;aspect=fixed;shape=mxgraph.aws4.resourceIcon;resIcon=mxgraph.aws4.mobile_client;fontFamily=Times New Roman;" vertex="1" parent="1">
          <mxGeometry x="40" y="160" width="70" height="70" as="geometry" />
        </mxCell>
        <mxCell id="bNuw-tWGTO1KnylRXAeA-48" value="Microservice" style="text;html=1;align=center;verticalAlign=middle;resizable=0;points=[];autosize=1;strokeColor=none;fillColor=none;fontSize=16;fontFamily=Times New Roman;rotation=90;" vertex="1" parent="1">
          <mxGeometry x="890" y="145.75" width="110" height="30" as="geometry" />
        </mxCell>
        <mxCell id="bNuw-tWGTO1KnylRXAeA-58" value="Microservice" style="text;html=1;align=center;verticalAlign=middle;resizable=0;points=[];autosize=1;strokeColor=none;fillColor=none;fontSize=16;fontFamily=Times New Roman;rotation=90;" vertex="1" parent="1">
          <mxGeometry x="890" y="313.75" width="110" height="30" as="geometry" />
        </mxCell>
        <mxCell id="bNuw-tWGTO1KnylRXAeA-59" value="Microservice" style="text;html=1;align=center;verticalAlign=middle;resizable=0;points=[];autosize=1;strokeColor=none;fillColor=none;fontSize=16;fontFamily=Times New Roman;rotation=90;" vertex="1" parent="1">
          <mxGeometry x="890" y="478" width="110" height="30" as="geometry" />
        </mxCell>
      </root>
    </mxGraphModel>
  </diagram>
</mxfile>
